<svg width="20" height="20" viewBox="0 0 24 24" fill="none"><path d="M2.18 9.03A1.5 1.5 0 012.8 7l7.94-4.22a1.5 1.5 0 012.03.62l.33.62-5.79 1.32a2.5 2.5 0 00-1.88 3l2.7 11.88a1.8 1.8 0 01-.09-.15L2.18 9.03z" fill="currentColor"></path><path d="M7.83 6.45a1.5 1.5 0 00-1.13 1.8l2.56 11.22a1.5 1.5 0 00.31.63V8.57a2.5 2.5 0 012.5-2.5h6.44l-.11-.5a1.5 1.5 0 00-1.8-1.12l-8.77 2z" fill="currentColor"></path><path d="M12.5 7.1A1.5 1.5 0 0011 8.6v11.3a1.5 1.5 0 001.5 1.5H20a1.5 1.5 0 001.5-1.5V8.6A1.5 1.5 0 0020 7.1h-7.5zm.5 2h6.5v10.3H13V9.1z" fill="currentColor"></path></svg>