<svg width="1em" height="1em" viewBox="0 0 24 24" fill="none" xmlns="http://www.w3.org/2000/svg" data-icon="BitablegalleryOutlined"><path d="M6.5 13.5A.5.5 0 0 1 7 13h3.5a.5.5 0 0 1 .5.5V17a.5.5 0 0 1-.5.5H7a.5.5 0 0 1-.5-.5v-3.5Zm7-.5a.5.5 0 0 0-.5.5V17a.5.5 0 0 0 .5.5H17a.5.5 0 0 0 .5-.5v-3.5a.5.5 0 0 0-.5-.5h-3.5Zm-7-6a.5.5 0 0 1 .5-.5h3.5a.5.5 0 0 1 .5.5v3.5a.5.5 0 0 1-.5.5H7a.5.5 0 0 1-.5-.5V7Zm7-.5a.5.5 0 0 0-.5.5v3.5a.5.5 0 0 0 .5.5H17a.5.5 0 0 0 .5-.5V7a.5.5 0 0 0-.5-.5h-3.5Z" fill="currentColor"></path><path d="M4 2a2 2 0 0 0-2 2v16a2 2 0 0 0 2 2h16a2 2 0 0 0 2-2V4a2 2 0 0 0-2-2H4Zm16 2v16H4V4h16Z" fill="currentColor"></path></svg>