<svg width="20" height="20" viewBox="0 0 24 24" fill="none"><path d="M12 3.69l2.44 3.78a3 3 0 001.74 1.27l4.35 1.18-2.84 3.54a3 3 0 00-.66 2.03l.23 4.54-4.18-1.62a3 3 0 00-2.16 0l-4.18 1.61.23-4.53a3 3 0 00-.66-2.03L3.47 9.92l4.35-1.18a3 3 0 001.74-1.27L12 3.69zm1.26-1.74a1.5 1.5 0 00-2.52 0L7.88 6.4a1 1 0 01-.58.42L2.2 8.19a1.5 1.5 0 00-.78 2.38l3.32 4.14a1 1 0 01.22.68l-.27 5.3a1.5 1.5 0 002.04 1.48l4.9-1.9a1 1 0 01.72 0l4.9 1.9a1.5 1.5 0 002.04-1.48l-.27-5.3a1 1 0 01.21-.68l3.33-4.14a1.5 1.5 0 00-.78-2.38L16.7 6.8a1 1 0 01-.58-.42l-2.86-4.44z" fill="currentColor"></path></svg>