<svg width="20" height="20" viewBox="0 0 20 20" xmlns="http://www.w3.org/2000/svg"><path d="M2.5 18.334h-.833a.417.417 0 0 1-.417-.417V7.083a.417.417 0 0 1 .417-.416H2.5a.417.417 0 0 1 .417.416v10.834a.417.417 0 0 1-.417.416zm9.999-11.668h3.574c2.487 0 3.058 2.195 2.487 3.84l-2.487 6.545c-.21.761-.91 1.29-1.708 1.29H4.577a.417.417 0 0 1-.417-.417V7.082a.417.417 0 0 1 .417-.416h.856a.833.833 0 0 0 .682-.355l3.46-4.92c.234-.373.866-.66 1.54-.352 1.01.46 2.22 1.464 2.22 3.13 0 .627-.28 1.46-.836 2.497z"></path></svg>