<svg width="1em" height="1em" viewBox="0 0 24 24" fill="none" xmlns="http://www.w3.org/2000/svg"><path d="M3 3a2 2 0 0 1 2-2h9.586a1 1 0 0 1 .707.293l5.414 5.414a1 1 0 0 1 .293.707V21a2 2 0 0 1-2 2H5a2 2 0 0 1-2-2V3Z" fill="#FFA53D"></path><path opacity="0.9" d="M15 1.483a.2.2 0 0 1 .341-.142L20.66 6.66a.2.2 0 0 1-.142.341H17a2 2 0 0 1-2-2V1.483Z" fill="#F80"></path><path d="M12.39 9.488a.5.5 0 0 0-.78 0l-2.96 3.7a.5.5 0 0 0 .39.812H11v2h2v-2h1.96a.5.5 0 0 0 .39-.812l-2.96-3.7ZM11 18v-1h2v1h-2Z" fill="#fff"></path></svg>